<?xml version="1.0" encoding="utf-8"?>
<!-- Generator: Adobe Illustrator 19.2.0, SVG Export Plug-In . SVG Version: 6.00 Build 0)  -->
<svg version="1.1" id="Layer_1" xmlns="http://www.w3.org/2000/svg" xmlns:xlink="http://www.w3.org/1999/xlink" x="0px" y="0px"
	 viewBox="0 0 360 360" style="enable-background:new 0 0 360 360;" xml:space="preserve">
<style type="text/css">
	.st0{fill:#FFFFFF;}
</style>
<g>
	<path class="st0" d="M324.3,214.3v-10.9h-14.4v0l0,0V96.8h-14.1L223.3,207v7.3h67.7v30.4h-14.4v10.9h47.8v-10.9h-14.5v-30.4l0,0v0
		H324.3z M290.9,203.4h-52.3l52.3-81.5V203.4z"/>
	<path class="st0" d="M179.2,251.3c-6.5,0-12.5-1.8-17.5-4.8c23.7-14.3,39.6-40,39.6-69.4c0-44.9-36.9-81.2-82.5-81.2
		s-82.5,36.4-82.5,81.2c0,44.9,36.9,81.2,82.5,81.2c6.5,0,12.8-0.7,18.9-2.1c7.6,4.6,17.5,7.4,28.4,7.4c20.1,0,36.9-9.4,41.5-22.1
		H203C197.2,247.5,188.7,251.3,179.2,251.3z M119.2,247.1c-33.5,0-60.6-30.9-60.6-69s27.1-69,60.6-69c33.5,0,60.6,30.9,60.6,69
		S152.7,247.1,119.2,247.1z"/>
</g>
</svg>
