<?xml version="1.0" encoding="utf-8"?>
<!-- Generator: Adobe Illustrator 27.1.0, SVG Export Plug-In . SVG Version: 6.00 Build 0)  -->
<svg version="1.1" id="Layer_1" xmlns="http://www.w3.org/2000/svg" xmlns:xlink="http://www.w3.org/1999/xlink" x="0px" y="0px"
	 viewBox="0 0 512 512" style="enable-background:new 0 0 512 512;" xml:space="preserve">
<style type="text/css">
	.st0{fill:#0F5CA3;}
	.st1{opacity:0.44;fill:#FFFFFF;}
	.st2{fill:#FFFFFF;}
	.st3{fill:#1C9AF9;}
</style>
<g>
	<path class="st0" d="M497.6,512H14.4C6.5,512,0,505.5,0,497.6V14.4C0,6.5,6.5,0,14.4,0h483.2c7.9,0,14.4,6.5,14.4,14.4v483.2
		C512,505.5,505.5,512,497.6,512z"/>
</g>
<path class="st1" d="M463,231.8l-26.9,113.7l-17-21.8l-23.7,18.4c-14.4,11.2-32.4,18.4-51.6,20.5c-3.8,0.5-7.6,0.6-11.5,0.7
	c-23.4,0.2-46-6.8-63.5-19.8l0,0L180.1,277c-3.3-2.5-12.7-2.3-16,0.1L104,324L48,252.3l60.1-46.8c17.2-13.4,39.7-20.9,63.1-21.2
	c23.4-0.2,46,6.8,63.5,19.8l89,66.4c0.2,0.1,0.5,0.2,0.7,0.5c3.8,2,12.2,1.7,15.3-0.6l23.5-18.4l-17-21.8L463,231.8z"/>
<path class="st2" d="M315.1,307.5c8.4,20.2,9.7,43.7,3.8,66.4c-5.9,22.7-18.7,42.5-36,55.9l-60,46.8l-56.1-71.8L227,358
	c3.3-2.6,5.7-11.7,4.1-15.5l-42.6-102.4c-8.4-20.2-9.7-43.7-3.8-66.4s18.7-42.5,36-55.9l23.5-18.4l-17-21.8L344,79.3L317.1,193
	l-17-21.8l-23.5,18.4c-3.3,2.6-5.7,11.7-4.1,15.4L315.1,307.5z"/>
<g>
	<path class="st3" d="M378.1,65.2h29.4V35.5h24.9v29.7h29.7v24.9h-29.7v29.4h-24.9V90h-29.4V65.2z"/>
</g>
</svg>
